<?xml version="1.0" encoding="utf-8"?>
<!-- Generator: Adobe Illustrator 27.8.1, SVG Export Plug-In . SVG Version: 6.00 Build 0)  -->
<svg version="1.1" id="Layer_1" xmlns="http://www.w3.org/2000/svg" xmlns:xlink="http://www.w3.org/1999/xlink" x="0px" y="0px"
	 viewBox="0 0 72 56" style="enable-background:new 0 0 72 56;" xml:space="preserve">
<style type="text/css">
	.st0{fill:#FFFFFF;}
	.st1{fill:#107C10;}
</style>
<rect class="st0" width="72" height="56"/>
<g id="LOGOS">
	<path class="st1" d="M50.7,13.6c-3.3-2.1-5.2-5.7-5.2-9.6h-8.3v33.1c-0.1,3.8-3.4,6.8-7.2,6.7s-6.8-3.4-6.7-7.2
		c0.1-3.7,3.2-6.7,6.9-6.7c0.7,0,1.4,0.1,2,0.3v-8.4c-0.7-0.1-1.4-0.1-2-0.1c-8.4,0-15.2,6.8-15.2,15.2s6.8,15.2,15.2,15.2
		s15.2-6.8,15.2-15.2V20c3.3,2.4,7.4,3.7,11.5,3.7v-8.3C54.7,15.5,52.5,14.8,50.7,13.6z"/>
</g>
</svg>
