<?xml version="1.0" encoding="utf-8"?>
<!-- Generator: Adobe Illustrator 27.8.1, SVG Export Plug-In . SVG Version: 6.00 Build 0)  -->
<svg version="1.1" id="Layer_1" xmlns="http://www.w3.org/2000/svg" xmlns:xlink="http://www.w3.org/1999/xlink" x="0px" y="0px"
	 viewBox="0 0 72 56" style="enable-background:new 0 0 72 56;" xml:space="preserve">
<style type="text/css">
	.st0{fill:#FFFFFF;}
	.st1{fill:#107C10;}
</style>
<rect class="st0" width="72" height="56"/>
<g id="Twitter">
	<path class="st1" d="M60.9,12.6c-1.4,2-3.2,3.8-5.2,5.2v1.4c0,7.3-2.7,14.3-7.5,19.7c-5.4,6.2-13.3,9.7-21.5,9.5
		c-5.5,0-10.9-1.5-15.6-4.5h2.5c4.6,0,9.1-1.6,12.7-4.5c-2.1,0-4.2-0.7-5.9-2c-1.7-1.2-3-3-3.6-5c0.6,0,1.2,0,1.8,0.2
		c0.9,0,1.8,0,2.7-0.2c-4.7-1.1-8-5.4-7.9-10.2V22c1.4,0.7,2.9,1.1,4.5,1.4c-2.9-1.9-4.6-5.1-4.5-8.6c0-1.8,0.5-3.6,1.4-5.2
		c5,6.6,12.7,10.5,21,10.6c-0.2-0.8-0.2-1.5-0.2-2.3c0-5.6,4.5-10.2,10-10.2c0.1,0,0.1,0,0.2,0l0,0c2.8-0.1,5.6,1.1,7.5,3.2
		c2.3-0.5,4.5-1.4,6.6-2.5c-0.7,2.4-2.3,4.5-4.5,5.7C57.3,13.9,59.1,13.4,60.9,12.6z"/>
</g>
</svg>
